<?xml version="1.0" encoding="iso-8859-1"?>
<!-- Generator: Adobe Illustrator 19.0.0, SVG Export Plug-In . SVG Version: 6.00 Build 0)  -->
<svg version="1.1" id="Layer_1" xmlns="http://www.w3.org/2000/svg" xmlns:xlink="http://www.w3.org/1999/xlink" x="0px" y="0px"
	 viewBox="0 0 503.024 503.024" style="enable-background:new 0 0 503.024 503.024;" xml:space="preserve">
<g>
	<path style="fill:#384851;" d="M123.512,445.416c0,1.24-1.488,1.608-2.728,1.608h-42.52c-1.24,0-2.752-0.368-2.752-1.608v-4.264
		c0-1.224,1.64-2.128,2.872-2.128h42.4c1.24,0,2.728,0.28,2.728,1.504V445.416z"/>
	<path style="fill:#384851;" d="M427.512,445.416c0,1.24-1.488,1.608-2.728,1.608h-42.52c-1.24,0-2.752-0.368-2.752-1.608v-4.264
		c0-1.224,1.64-2.128,2.872-2.128h42.4c1.24,0,2.728,0.28,2.728,1.504V445.416z"/>
</g>
<path style="fill:#EF7100;" d="M322.824,73.608c0,40.656,6.24,130.592-71.304,130.592c-96.632,0-71.32-89.936-71.32-130.592
	C180.2,32.96,212.136,0,251.52,0C290.888,0,322.824,32.96,322.824,73.608z"/>
<path style="fill:#ED4F00;" d="M180.2,73.608C180.2,32.96,212.136,0,251.52,0c39.368,0,71.304,32.96,71.304,73.608"/>
<rect x="75.512" y="279.024" style="fill:#EF7100;" width="48" height="160"/>
<g>
	<polygon style="fill:#ED4F00;" points="123.512,439.024 75.512,439.024 104.408,418.832 123.512,278.44 	"/>
	<rect x="379.512" y="279.024" style="fill:#ED4F00;" width="48" height="160"/>
</g>
<g>
	<polygon style="fill:#EF7100;" points="427.512,439.024 385.216,439.024 407.28,418.832 427.512,278.44 	"/>
	<polygon style="fill:#EF7100;" points="427.512,278.768 374.48,152.784 373.68,152.344 373.68,152.344 373.68,152.344 
		373.68,152.344 300.208,127.024 203.048,127.024 129.6,151.776 129.6,151.776 129.6,151.776 129.6,151.776 128.784,152.512 
		75.744,278.632 107.712,317.288 153.616,252.016 140.376,503.024 362.896,503.024 349.64,252.04 388.92,310.952 	"/>
</g>
<polygon style="fill:#ED4F00;" points="427.512,278.768 374.48,152.784 373.68,152.344 373.68,152.344 373.68,152.344 
	359.376,166.648 300.208,127.024 203.048,127.024 136.752,166.08 129.6,151.776 129.6,151.776 129.6,151.776 128.784,152.512 
	75.512,279.024 107.712,317.288 153.616,252.016 168.992,503.024 334.28,503.024 349.64,252.04 388.92,310.952 "/>
<polyline style="fill:#04647A;" points="136.712,159.176 136.608,159.256 135.76,159.568 "/>
<g>
	<rect x="250.456" y="191.184" style="fill:#384851;" width="2.368" height="310.848"/>
	<path style="fill:#384851;" d="M300.912,87.864c0,38.176,16.032,98.512-49.392,98.512s-49.408-60.336-49.408-98.512
		c0-38.16,22.128-69.096,49.408-69.096C278.792,18.776,300.912,49.704,300.912,87.864z"/>
</g>
<path style="fill:#26343A;" d="M202.112,87.864c0-38.16,22.128-69.096,49.408-69.096c27.272,0,49.392,30.936,49.392,69.096"/>
<g>
	<path style="fill:#ED4F00;" d="M251.52,187.512c0,19.008-15.984,27.416-31.312,27.416c-15.312,0-27.72-51.184-27.72-70.192
		c0-19.024,11.664-22.424,24.152-13.56C240.184,147.864,251.52,168.488,251.52,187.512z"/>
	<path style="fill:#ED4F00;" d="M251.52,187.512c0,19.008,15.984,27.416,31.296,27.416c15.312,0,27.72-51.184,27.72-70.192
		c0-19.024-11.664-22.424-24.152-13.56C262.84,147.864,251.52,168.488,251.52,187.512z"/>
</g>
<polygon style="fill:#D14507;" points="243.512,479.024 162.08,479.024 189.384,411.808 243.512,418.824 "/>
<polygon style="fill:#EF7100;" points="243.512,479.024 162.08,479.024 200.536,415.024 243.512,415.024 "/>
<polygon style="fill:#D14507;" points="259.512,479.024 340.944,479.024 313.64,411.808 259.512,418.824 "/>
<polygon style="fill:#EF7100;" points="259.512,479.024 340.944,479.024 302.488,415.024 259.512,415.024 "/>
<g>
	<path style="fill:#494646;" d="M220.144,293.328c-0.952,0-1.912-0.392-2.616-1.144l-15.216-16.408
		c-1.824-1.96-2.68-4.032-2.536-6.144c0.232-3.368,2.792-5.472,4.824-7.176c0.688-0.544,1.712-1.408,1.928-1.784l-0.088-90.832
		c0-5.912,4.816-10.816,10.736-10.816h2.976c1.984,0,3.576,2.024,3.576,4.008c0,1.976-1.6,3.992-3.576,3.992h-2.976
		c-1.984,0-5.664,0.912-5.664,2.888v91.224c0,3.176-1.416,5.2-3.384,6.832c-0.76,0.624-1.48,1.648-1.72,2.176
		c0.056,0.008,0.456,0.296,0.896,0.768l15.336,16.392c1.352,1.456,1.336,3.712-0.12,5.056
		C221.824,293.016,221.024,293.328,220.144,293.328z"/>
	<circle style="fill:#494646;" cx="223.264" cy="294.08" r="7"/>
	<path style="fill:#494646;" d="M239.768,311.024c-2.224-8-8.384-14.92-15.752-14.92c-7.352,0-13.512,6.92-15.752,14.92H239.768z"/>
	<path style="fill:#494646;" d="M282.88,293.328c0.952,0,1.912-0.392,2.616-1.144l15.216-16.408c1.824-1.96,2.68-4.032,2.536-6.144
		c-0.232-3.368-2.792-5.472-4.824-7.176c-0.688-0.544-1.712-1.408-1.912-1.784l0.08-90.832c0-5.912-4.816-10.816-10.72-10.816
		h-2.992c-1.984,0-3.576,2.024-3.576,4.008c0,1.976,1.6,3.992,3.576,3.992h2.992c1.96,0,5.64,0.912,5.64,2.888v91.224
		c0,3.176,1.416,5.2,3.384,6.832c0.76,0.624,1.48,1.648,1.72,2.176c-0.04,0.008-0.456,0.296-0.896,0.768l-15.336,16.392
		c-1.352,1.456-1.336,3.712,0.12,5.056C281.2,293.016,282,293.328,282.88,293.328z"/>
	<circle style="fill:#494646;" cx="279.76" cy="294.08" r="7"/>
	<path style="fill:#494646;" d="M263.256,311.024c2.224-8,8.384-14.92,15.752-14.92c7.352,0,13.512,6.92,15.752,14.92H263.256z"/>
</g>
<g>
</g>
<g>
</g>
<g>
</g>
<g>
</g>
<g>
</g>
<g>
</g>
<g>
</g>
<g>
</g>
<g>
</g>
<g>
</g>
<g>
</g>
<g>
</g>
<g>
</g>
<g>
</g>
<g>
</g>
</svg>
